<svg width="85" height="86" viewBox="0 0 85 86" fill="none" xmlns="http://www.w3.org/2000/svg">
<path d="M31.1666 40.0498C27.4094 40.0498 23.806 38.5573 21.1492 35.9005C18.4925 33.2437 16.9999 29.6404 16.9999 25.8831V14.5498C16.9999 13.7984 17.2984 13.0777 17.8298 12.5463C18.3611 12.015 19.0818 11.7165 19.8333 11.7165H22.6666C23.418 11.7165 24.1387 11.418 24.6701 10.8866C25.2014 10.3553 25.4999 9.63458 25.4999 8.88314C25.4999 8.13169 25.2014 7.41102 24.6701 6.87967C24.1387 6.34832 23.418 6.0498 22.6666 6.0498H19.8333C17.5789 6.0498 15.4169 6.94534 13.8228 8.5394C12.2288 10.1335 11.3333 12.2955 11.3333 14.5498V25.8831C11.3369 29.0841 12.1174 32.2363 13.6079 35.069C15.0983 37.9018 17.254 40.3305 19.8899 42.1465C22.4224 44.3792 24.4763 47.102 25.9274 50.1504C27.3786 53.1988 28.197 56.5097 28.3333 59.8831C28.3333 65.1433 30.4228 70.188 34.1423 73.9074C37.8618 77.6269 42.9065 79.7165 48.1666 79.7165C53.4267 79.7165 58.4714 77.6269 62.1909 73.9074C65.9103 70.188 67.9999 65.1433 67.9999 59.8831V56.6531C70.6708 55.9635 72.9985 54.3235 74.5466 52.0405C76.0948 49.7574 76.7572 46.9881 76.4096 44.2516C76.062 41.5152 74.7283 38.9994 72.6586 37.1759C70.5888 35.3524 67.925 34.3464 65.1666 34.3464C62.4081 34.3464 59.7444 35.3524 57.6746 37.1759C55.6048 38.9994 54.2712 41.5152 53.9236 44.2516C53.576 46.9881 54.2384 49.7574 55.7865 52.0405C57.3347 54.3235 59.6624 55.9635 62.3333 56.6531V59.8831C62.3333 63.6404 60.8407 67.2437 58.1839 69.9005C55.5272 72.5573 51.9238 74.0498 48.1666 74.0498C44.4094 74.0498 40.806 72.5573 38.1492 69.9005C35.4925 67.2437 33.9999 63.6404 33.9999 59.8831C34.1433 56.5055 34.9706 53.1921 36.4316 50.1434C37.8926 47.0947 39.9571 44.3742 42.4999 42.1465C45.1254 40.3242 47.2701 37.8927 48.7504 35.0604C50.2308 32.228 51.0026 29.079 50.9999 25.8831V14.5498C50.9999 12.2955 50.1044 10.1335 48.5103 8.5394C46.9163 6.94534 44.7543 6.0498 42.4999 6.0498H39.6666C38.9151 6.0498 38.1945 6.34832 37.6631 6.87967C37.1318 7.41102 36.8333 8.13169 36.8333 8.88314C36.8333 9.63458 37.1318 10.3553 37.6631 10.8866C38.1945 11.418 38.9151 11.7165 39.6666 11.7165H42.4999C43.2514 11.7165 43.972 12.015 44.5034 12.5463C45.0347 13.0777 45.3333 13.7984 45.3333 14.5498V25.8831C45.3333 27.7435 44.9668 29.5857 44.2549 31.3045C43.5429 33.0233 42.4994 34.585 41.1839 35.9005C39.8684 37.216 38.3067 38.2595 36.5879 38.9714C34.8692 39.6834 33.027 40.0498 31.1666 40.0498ZM65.1666 51.3831C63.6637 51.3831 62.2224 50.7861 61.1596 49.7234C60.0969 48.6607 59.4999 47.2194 59.4999 45.7165C59.4999 44.2136 60.0969 42.7722 61.1596 41.7095C62.2224 40.6468 63.6637 40.0498 65.1666 40.0498C66.6695 40.0498 68.1108 40.6468 69.1735 41.7095C70.2362 42.7722 70.8333 44.2136 70.8333 45.7165C70.8333 47.2194 70.2362 48.6607 69.1735 49.7234C68.1108 50.7861 66.6695 51.3831 65.1666 51.3831Z" fill="#FF7D61"/>
</svg>
